<?xml version="1.0" encoding="UTF-8" standalone="no"?>
<!DOCTYPE svg PUBLIC "-//W3C//DTD SVG 1.1//EN"
 "http://www.w3.org/Graphics/SVG/1.1/DTD/svg11.dtd">
<!-- Generated by graphviz version 2.47.3 (20210619.2315)
 -->
<!-- Pages: 1 -->
<svg width="466pt" height="520pt"
 viewBox="0.00 0.00 465.50 520.00" xmlns="http://www.w3.org/2000/svg" xmlns:xlink="http://www.w3.org/1999/xlink">
<g id="graph0" class="graph" transform="scale(1 1) rotate(0) translate(4 516)">
<polygon fill="white" stroke="transparent" points="-4,4 -4,-516 461.5,-516 461.5,4 -4,4"/>
<!-- 4408560251668685782 -->
<g id="node1" class="node">
<title>4408560251668685782</title>
<g id="a_node1"><a xlink:title="A Blockwise Layer with 59 Tasks.&#10;Number of Partitions: 59&#10;DataFrame Type: pandas&#10;10 DataFrame Columns: [...]&#10;">
<polygon fill="#d9ffe6" stroke="black" points="212.5,-352 108.5,-352 108.5,-316 212.5,-316 212.5,-352"/>
<text text-anchor="middle" x="160.5" y="-329" font-family="Helvetica,sans-Serif" font-size="20.00">assign&#45;#0</text>
</a>
</g>
</g>
<!-- 964885023045450559 -->
<g id="node5" class="node">
<title>964885023045450559</title>
<g id="a_node5"><a xlink:title="A Materialized Layer with 120 Tasks.&#10;Number of Partitions: 59&#10;DataFrame Type: pandas&#10;10 DataFrame Columns: [...]&#10;">
<polygon fill="#dbdee5" stroke="black" points="321,-440 0,-440 0,-388 321,-388 321,-440"/>
<text text-anchor="middle" x="160.5" y="-404" font-family="Helvetica,sans-Serif" font-size="40.00">shuffle&#45;collect&#45;#4</text>
</a>
</g>
</g>
<!-- 4408560251668685782&#45;&gt;964885023045450559 -->
<g id="edge5" class="edge">
<title>4408560251668685782&#45;&gt;964885023045450559</title>
<path fill="none" stroke="black" d="M160.5,-352.31C160.5,-359.79 160.5,-368.84 160.5,-377.64"/>
<polygon fill="black" stroke="black" points="157,-377.74 160.5,-387.74 164,-377.74 157,-377.74"/>
</g>
<!-- 641639224556700192 -->
<g id="node2" class="node">
<title>641639224556700192</title>
<g id="a_node2"><a xlink:title="A DataFrameIO Layer with 59 Tasks.&#10;Number of Partitions: 59&#10;DataFrame Type: pandas&#10;9 DataFrame Columns: [...]&#10;">
<polygon fill="#ccc7f9" stroke="black" points="233.5,-86 41.5,-86 41.5,-50 233.5,-50 233.5,-86"/>
<text text-anchor="middle" x="137.5" y="-63" font-family="Helvetica,sans-Serif" font-size="20.00">make&#45;timeseries&#45;#1</text>
</a>
</g>
</g>
<!-- 641639224556700192&#45;&gt;4408560251668685782 -->
<g id="edge1" class="edge">
<title>641639224556700192&#45;&gt;4408560251668685782</title>
<path fill="none" stroke="black" d="M130.56,-86.06C116.69,-122.81 88.98,-211.65 114.5,-280 118.38,-290.38 125.3,-300.07 132.62,-308.26"/>
<polygon fill="black" stroke="black" points="130.23,-310.82 139.68,-315.62 135.28,-305.97 130.23,-310.82"/>
</g>
<!-- 1944916950042131075 -->
<g id="node3" class="node">
<title>1944916950042131075</title>
<g id="a_node3"><a xlink:title="A Blockwise Layer with 59 Tasks.&#10;Number of Partitions: 59&#10;DataFrame Type: pandas&#10;0 DataFrame Columns: []&#10;">
<polygon fill="#d9ffe6" stroke="black" points="258,-208 147,-208 147,-172 258,-172 258,-208"/>
<text text-anchor="middle" x="202.5" y="-185" font-family="Helvetica,sans-Serif" font-size="20.00">getitem&#45;#2</text>
</a>
</g>
</g>
<!-- 641639224556700192&#45;&gt;1944916950042131075 -->
<g id="edge3" class="edge">
<title>641639224556700192&#45;&gt;1944916950042131075</title>
<path fill="none" stroke="black" d="M146.81,-86.19C157.67,-106.24 175.74,-139.6 188.34,-162.86"/>
<polygon fill="black" stroke="black" points="185.36,-164.71 193.2,-171.84 191.52,-161.38 185.36,-164.71"/>
</g>
<!-- &#45;8214032376248180805 -->
<g id="node4" class="node">
<title>&#45;8214032376248180805</title>
<g id="a_node4"><a xlink:title="A Blockwise Layer with 59 Tasks.&#10;">
<polygon fill="#d9ffe6" stroke="black" points="327,-280 124,-280 124,-244 327,-244 327,-280"/>
<text text-anchor="middle" x="225.5" y="-257" font-family="Helvetica,sans-Serif" font-size="20.00">partitioning_index&#45;#3</text>
</a>
</g>
</g>
<!-- 1944916950042131075&#45;&gt;&#45;8214032376248180805 -->
<g id="edge4" class="edge">
<title>1944916950042131075&#45;&gt;&#45;8214032376248180805</title>
<path fill="none" stroke="black" d="M208.19,-208.3C210.75,-216.1 213.83,-225.49 216.68,-234.17"/>
<polygon fill="black" stroke="black" points="213.43,-235.49 219.88,-243.9 220.08,-233.3 213.43,-235.49"/>
</g>
<!-- &#45;8214032376248180805&#45;&gt;4408560251668685782 -->
<g id="edge2" class="edge">
<title>&#45;8214032376248180805&#45;&gt;4408560251668685782</title>
<path fill="none" stroke="black" d="M209.43,-280.3C201.56,-288.78 191.94,-299.14 183.33,-308.42"/>
<polygon fill="black" stroke="black" points="180.62,-306.19 176.38,-315.9 185.75,-310.95 180.62,-306.19"/>
</g>
<!-- &#45;143476001856639592 -->
<g id="node6" class="node">
<title>&#45;143476001856639592</title>
<g id="a_node6"><a xlink:title="A Blockwise Layer with 59 Tasks.&#10;Number of Partitions: 59&#10;DataFrame Type: pandas&#10;9 DataFrame Columns: [...]&#10;">
<polygon fill="#d9ffe6" stroke="black" points="285.5,-512 35.5,-512 35.5,-476 285.5,-476 285.5,-512"/>
<text text-anchor="middle" x="160.5" y="-489" font-family="Helvetica,sans-Serif" font-size="20.00">drop_by_shallow_copy&#45;#5</text>
</a>
</g>
</g>
<!-- 964885023045450559&#45;&gt;&#45;143476001856639592 -->
<g id="edge6" class="edge">
<title>964885023045450559&#45;&gt;&#45;143476001856639592</title>
<path fill="none" stroke="black" d="M160.5,-440.11C160.5,-448.16 160.5,-457.12 160.5,-465.34"/>
<polygon fill="black" stroke="black" points="157,-465.59 160.5,-475.59 164,-465.59 157,-465.59"/>
</g>
<!-- Key -->
<g id="node7" class="node">
<title>Key</title>
<polygon fill="none" stroke="black" points="457.5,-136 251.5,-136 251.5,0 457.5,0 457.5,-136"/>
<polygon fill="none" stroke="black" points="251.5,-102 251.5,-136 457.5,-136 457.5,-102 251.5,-102"/>
<text text-anchor="start" x="257.5" y="-115" font-family="Helvetica,sans-Serif" font-weight="bold" font-size="20.00">Legend: Layer types</text>
<polygon fill="#ccc7f9" stroke="transparent" points="251.5,-68 251.5,-102 457.5,-102 457.5,-68 251.5,-68"/>
<polygon fill="none" stroke="black" points="251.5,-68 251.5,-102 457.5,-102 457.5,-68 251.5,-68"/>
<text text-anchor="start" x="268.5" y="-80" font-family="Helvetica,sans-Serif" font-size="20.00">DataFrameIOLayer</text>
<polygon fill="#d9ffe6" stroke="transparent" points="251.5,-34 251.5,-68 457.5,-68 457.5,-34 251.5,-34"/>
<polygon fill="none" stroke="black" points="251.5,-34 251.5,-68 457.5,-68 457.5,-34 251.5,-34"/>
<text text-anchor="start" x="310" y="-46" font-family="Helvetica,sans-Serif" font-size="20.00">Blockwise</text>
<polygon fill="#dbdee5" stroke="transparent" points="251.5,0 251.5,-34 457.5,-34 457.5,0 251.5,0"/>
<polygon fill="none" stroke="black" points="251.5,0 251.5,-34 457.5,-34 457.5,0 251.5,0"/>
<text text-anchor="start" x="275" y="-12" font-family="Helvetica,sans-Serif" font-size="20.00">MaterializedLayer</text>
</g>
</g>
</svg>
