<?xml version="1.0" encoding="UTF-8" standalone="no"?>
<!DOCTYPE svg PUBLIC "-//W3C//DTD SVG 1.1//EN"
 "http://www.w3.org/Graphics/SVG/1.1/DTD/svg11.dtd">
<!-- Generated by graphviz version 2.47.3 (20210619.2315)
 -->
<!-- Pages: 1 -->
<svg width="335pt" height="420pt"
 viewBox="0.00 0.00 335.00 420.00" xmlns="http://www.w3.org/2000/svg" xmlns:xlink="http://www.w3.org/1999/xlink">
<g id="graph0" class="graph" transform="scale(1 1) rotate(0) translate(4 416)">
<polygon fill="white" stroke="transparent" points="-4,4 -4,-416 331,-416 331,4 -4,4"/>
<!-- &#45;8514074165291926797 -->
<g id="node1" class="node">
<title>&#45;8514074165291926797</title>
<g id="a_node1"><a xlink:title="A Blockwise Layer with 59 Tasks.&#10;Number of Partitions: 59&#10;DataFrame Type: pandas&#10;10 DataFrame Columns: [...]&#10;">
<polygon fill="none" stroke="black" points="212.5,-252 108.5,-252 108.5,-216 212.5,-216 212.5,-252"/>
<text text-anchor="middle" x="160.5" y="-229" font-family="Helvetica,sans-Serif" font-size="20.00">assign&#45;#0</text>
</a>
</g>
</g>
<!-- &#45;2898117482626571246 -->
<g id="node5" class="node">
<title>&#45;2898117482626571246</title>
<g id="a_node5"><a xlink:title="A Materialized Layer with 120 Tasks.&#10;Number of Partitions: 59&#10;DataFrame Type: pandas&#10;10 DataFrame Columns: [...]&#10;">
<polygon fill="none" stroke="black" points="321,-340 0,-340 0,-288 321,-288 321,-340"/>
<text text-anchor="middle" x="160.5" y="-304" font-family="Helvetica,sans-Serif" font-size="40.00">shuffle&#45;collect&#45;#4</text>
</a>
</g>
</g>
<!-- &#45;8514074165291926797&#45;&gt;&#45;2898117482626571246 -->
<g id="edge5" class="edge">
<title>&#45;8514074165291926797&#45;&gt;&#45;2898117482626571246</title>
<path fill="none" stroke="black" d="M160.5,-252.31C160.5,-259.79 160.5,-268.84 160.5,-277.64"/>
<polygon fill="black" stroke="black" points="157,-277.74 160.5,-287.74 164,-277.74 157,-277.74"/>
</g>
<!-- &#45;4797732641010524478 -->
<g id="node2" class="node">
<title>&#45;4797732641010524478</title>
<g id="a_node2"><a xlink:title="A DataFrameIO Layer with 59 Tasks.&#10;Number of Partitions: 59&#10;DataFrame Type: pandas&#10;9 DataFrame Columns: [...]&#10;">
<polygon fill="none" stroke="black" points="233.5,-36 41.5,-36 41.5,0 233.5,0 233.5,-36"/>
<text text-anchor="middle" x="137.5" y="-13" font-family="Helvetica,sans-Serif" font-size="20.00">make&#45;timeseries&#45;#1</text>
</a>
</g>
</g>
<!-- &#45;4797732641010524478&#45;&gt;&#45;8514074165291926797 -->
<g id="edge1" class="edge">
<title>&#45;4797732641010524478&#45;&gt;&#45;8514074165291926797</title>
<path fill="none" stroke="black" d="M129.76,-36.04C117.26,-66.08 95.83,-130.01 114.5,-180 118.38,-190.38 125.3,-200.07 132.62,-208.26"/>
<polygon fill="black" stroke="black" points="130.23,-210.82 139.68,-215.62 135.28,-205.97 130.23,-210.82"/>
</g>
<!-- 8885731488898802223 -->
<g id="node3" class="node">
<title>8885731488898802223</title>
<g id="a_node3"><a xlink:title="A Blockwise Layer with 59 Tasks.&#10;Number of Partitions: 59&#10;DataFrame Type: pandas&#10;0 DataFrame Columns: []&#10;">
<polygon fill="none" stroke="black" points="258,-108 147,-108 147,-72 258,-72 258,-108"/>
<text text-anchor="middle" x="202.5" y="-85" font-family="Helvetica,sans-Serif" font-size="20.00">getitem&#45;#2</text>
</a>
</g>
</g>
<!-- &#45;4797732641010524478&#45;&gt;8885731488898802223 -->
<g id="edge3" class="edge">
<title>&#45;4797732641010524478&#45;&gt;8885731488898802223</title>
<path fill="none" stroke="black" d="M153.57,-36.3C161.44,-44.78 171.06,-55.14 179.67,-64.42"/>
<polygon fill="black" stroke="black" points="177.25,-66.95 186.62,-71.9 182.38,-62.19 177.25,-66.95"/>
</g>
<!-- 6440375750886836309 -->
<g id="node4" class="node">
<title>6440375750886836309</title>
<g id="a_node4"><a xlink:title="A Blockwise Layer with 59 Tasks.&#10;">
<polygon fill="none" stroke="black" points="327,-180 124,-180 124,-144 327,-144 327,-180"/>
<text text-anchor="middle" x="225.5" y="-157" font-family="Helvetica,sans-Serif" font-size="20.00">partitioning_index&#45;#3</text>
</a>
</g>
</g>
<!-- 8885731488898802223&#45;&gt;6440375750886836309 -->
<g id="edge4" class="edge">
<title>8885731488898802223&#45;&gt;6440375750886836309</title>
<path fill="none" stroke="black" d="M208.19,-108.3C210.75,-116.1 213.83,-125.49 216.68,-134.17"/>
<polygon fill="black" stroke="black" points="213.43,-135.49 219.88,-143.9 220.08,-133.3 213.43,-135.49"/>
</g>
<!-- 6440375750886836309&#45;&gt;&#45;8514074165291926797 -->
<g id="edge2" class="edge">
<title>6440375750886836309&#45;&gt;&#45;8514074165291926797</title>
<path fill="none" stroke="black" d="M209.43,-180.3C201.56,-188.78 191.94,-199.14 183.33,-208.42"/>
<polygon fill="black" stroke="black" points="180.62,-206.19 176.38,-215.9 185.75,-210.95 180.62,-206.19"/>
</g>
<!-- &#45;1654115065028749537 -->
<g id="node6" class="node">
<title>&#45;1654115065028749537</title>
<g id="a_node6"><a xlink:title="A Blockwise Layer with 59 Tasks.&#10;Number of Partitions: 59&#10;DataFrame Type: pandas&#10;9 DataFrame Columns: [...]&#10;">
<polygon fill="none" stroke="black" points="285.5,-412 35.5,-412 35.5,-376 285.5,-376 285.5,-412"/>
<text text-anchor="middle" x="160.5" y="-389" font-family="Helvetica,sans-Serif" font-size="20.00">drop_by_shallow_copy&#45;#5</text>
</a>
</g>
</g>
<!-- &#45;2898117482626571246&#45;&gt;&#45;1654115065028749537 -->
<g id="edge6" class="edge">
<title>&#45;2898117482626571246&#45;&gt;&#45;1654115065028749537</title>
<path fill="none" stroke="black" d="M160.5,-340.11C160.5,-348.16 160.5,-357.12 160.5,-365.34"/>
<polygon fill="black" stroke="black" points="157,-365.59 160.5,-375.59 164,-365.59 157,-365.59"/>
</g>
</g>
</svg>
