<?xml version="1.0" encoding="UTF-8" standalone="no"?>
<!DOCTYPE svg PUBLIC "-//W3C//DTD SVG 1.1//EN"
 "http://www.w3.org/Graphics/SVG/1.1/DTD/svg11.dtd">
<!-- Generated by graphviz version 2.47.3 (20210619.2315)
 -->
<!-- Pages: 1 -->
<svg width="139pt" height="188pt"
 viewBox="0.00 0.00 139.00 188.00" xmlns="http://www.w3.org/2000/svg" xmlns:xlink="http://www.w3.org/1999/xlink">
<g id="graph0" class="graph" transform="scale(1 1) rotate(0) translate(4 184)">
<polygon fill="white" stroke="transparent" points="-4,4 -4,-184 135,-184 135,4 -4,4"/>
<!-- 7706176396667363815 -->
<g id="node1" class="node">
<title>7706176396667363815</title>
<g id="a_node1"><a xlink:title="A BlockwiseCreateArray Layer with 4 Tasks.&#10;A Dask Array of size (10, 10) with chunks of size (5, 5).&#10;The Array Type is float64 and the chunks are of numpy.ndarray type">
<polygon fill="none" stroke="black" points="131,-36 0,-36 0,0 131,0 131,-36"/>
<text text-anchor="middle" x="65.5" y="-13" font-family="Helvetica,sans-Serif" font-size="20.00">ones_like&#45;#0</text>
</a>
</g>
</g>
<!-- 4635487068819081295 -->
<g id="node2" class="node">
<title>4635487068819081295</title>
<g id="a_node2"><a xlink:title="A Blockwise Layer with 4 Tasks.&#10;A Dask Array of size (10, 10) with chunks of size (5, 5).&#10;The Array Type is float64 and the chunks are of numpy.ndarray type">
<polygon fill="none" stroke="black" points="105.5,-108 25.5,-108 25.5,-72 105.5,-72 105.5,-108"/>
<text text-anchor="middle" x="65.5" y="-85" font-family="Helvetica,sans-Serif" font-size="20.00">add&#45;#1</text>
</a>
</g>
</g>
<!-- 7706176396667363815&#45;&gt;4635487068819081295 -->
<g id="edge1" class="edge">
<title>7706176396667363815&#45;&gt;4635487068819081295</title>
<path fill="none" stroke="black" d="M65.5,-36.3C65.5,-44.02 65.5,-53.29 65.5,-61.89"/>
<polygon fill="black" stroke="black" points="62,-61.9 65.5,-71.9 69,-61.9 62,-61.9"/>
</g>
<!-- &#45;3583754627667862704 -->
<g id="node3" class="node">
<title>&#45;3583754627667862704</title>
<g id="a_node3"><a xlink:title="A Blockwise Layer with 4 Tasks.&#10;A Dask Array of size (10, 10) with chunks of size (5, 5).&#10;The Array Type is float64 and the chunks are of numpy.ndarray type">
<polygon fill="none" stroke="black" points="104.5,-180 26.5,-180 26.5,-144 104.5,-144 104.5,-180"/>
<text text-anchor="middle" x="65.5" y="-157" font-family="Helvetica,sans-Serif" font-size="20.00">mul&#45;#2</text>
</a>
</g>
</g>
<!-- 4635487068819081295&#45;&gt;&#45;3583754627667862704 -->
<g id="edge2" class="edge">
<title>4635487068819081295&#45;&gt;&#45;3583754627667862704</title>
<path fill="none" stroke="black" d="M65.5,-108.3C65.5,-116.02 65.5,-125.29 65.5,-133.89"/>
<polygon fill="black" stroke="black" points="62,-133.9 65.5,-143.9 69,-133.9 62,-133.9"/>
</g>
</g>
</svg>
