<?xml version="1.0" encoding="UTF-8" standalone="no"?>
<!DOCTYPE svg PUBLIC "-//W3C//DTD SVG 1.1//EN"
 "http://www.w3.org/Graphics/SVG/1.1/DTD/svg11.dtd">
<!-- Generated by graphviz version 2.47.3 (20210619.2315)
 -->
<!-- Pages: 1 -->
<svg width="139pt" height="188pt"
 viewBox="0.00 0.00 139.00 188.00" xmlns="http://www.w3.org/2000/svg" xmlns:xlink="http://www.w3.org/1999/xlink">
<g id="graph0" class="graph" transform="scale(1 1) rotate(0) translate(4 184)">
<polygon fill="white" stroke="transparent" points="-4,4 -4,-184 135,-184 135,4 -4,4"/>
<!-- 1168965022607193615 -->
<g id="node1" class="node">
<title>1168965022607193615</title>
<g id="a_node1"><a xlink:title="Layer Type: BlockwiseCreateArray&#10;N Tasks: 4&#10;Array Shape: (10, 10)&#10;Data Type: float64&#10;Chunk Size: (5, 5)&#10;Chunk Type: numpy.ndarray&#10;">
<polygon fill="none" stroke="black" points="131,-36 0,-36 0,0 131,0 131,-36"/>
<text text-anchor="middle" x="65.5" y="-13" font-family="Helvetica,sans-Serif" font-size="20.00">ones_like&#45;#0</text>
</a>
</g>
</g>
<!-- 6130408088104201806 -->
<g id="node2" class="node">
<title>6130408088104201806</title>
<g id="a_node2"><a xlink:title="Layer Type: Blockwise&#10;N Tasks: 4&#10;Array Shape: (10, 10)&#10;Data Type: float64&#10;Chunk Size: (5, 5)&#10;Chunk Type: numpy.ndarray&#10;">
<polygon fill="none" stroke="black" points="105.5,-108 25.5,-108 25.5,-72 105.5,-72 105.5,-108"/>
<text text-anchor="middle" x="65.5" y="-85" font-family="Helvetica,sans-Serif" font-size="20.00">add&#45;#1</text>
</a>
</g>
</g>
<!-- 1168965022607193615&#45;&gt;6130408088104201806 -->
<g id="edge1" class="edge">
<title>1168965022607193615&#45;&gt;6130408088104201806</title>
<path fill="none" stroke="black" d="M65.5,-36.3C65.5,-44.02 65.5,-53.29 65.5,-61.89"/>
<polygon fill="black" stroke="black" points="62,-61.9 65.5,-71.9 69,-61.9 62,-61.9"/>
</g>
<!-- 6563806554639041016 -->
<g id="node3" class="node">
<title>6563806554639041016</title>
<g id="a_node3"><a xlink:title="Layer Type: Blockwise&#10;N Tasks: 4&#10;Array Shape: (10, 10)&#10;Data Type: float64&#10;Chunk Size: (5, 5)&#10;Chunk Type: numpy.ndarray&#10;">
<polygon fill="none" stroke="black" points="104.5,-180 26.5,-180 26.5,-144 104.5,-144 104.5,-180"/>
<text text-anchor="middle" x="65.5" y="-157" font-family="Helvetica,sans-Serif" font-size="20.00">mul&#45;#2</text>
</a>
</g>
</g>
<!-- 6130408088104201806&#45;&gt;6563806554639041016 -->
<g id="edge2" class="edge">
<title>6130408088104201806&#45;&gt;6563806554639041016</title>
<path fill="none" stroke="black" d="M65.5,-108.3C65.5,-116.02 65.5,-125.29 65.5,-133.89"/>
<polygon fill="black" stroke="black" points="62,-133.9 65.5,-143.9 69,-133.9 62,-133.9"/>
</g>
</g>
</svg>
